{
	"patcher" : 	{
		"fileversion" : 1,
		"rect" : [ 579.0, 245.0, 652.0, 491.0 ],
		"bglocked" : 0,
		"defrect" : [ 579.0, 245.0, 652.0, 491.0 ],
		"openrect" : [ 0.0, 0.0, 0.0, 0.0 ],
		"openinpresentation" : 1,
		"default_fontsize" : 12.0,
		"default_fontface" : 0,
		"default_fontname" : "Arial",
		"gridonopen" : 0,
		"gridsize" : [ 15.0, 15.0 ],
		"gridsnaponopen" : 0,
		"toolbarvisible" : 1,
		"boxanimatetime" : 200,
		"imprint" : 0,
		"enablehscroll" : 1,
		"enablevscroll" : 1,
		"devicewidth" : 0.0,
		"boxes" : [ 			{
				"box" : 				{
					"maxclass" : "bpatcher",
					"numoutlets" : 1,
					"outlettype" : [ "bang" ],
					"presentation_rect" : [ -1.015777, 57.243427, 63.0, 20.0 ],
					"args" : [ "Automat" ],
					"patching_rect" : [ 8.0, 61.0, 63.0, 20.0 ],
					"presentation" : 1,
					"bgmode" : 1,
					"id" : "obj-5",
					"name" : "gui.bng.box.maxpat",
					"numinlets" : 0
				}

			}
, 			{
				"box" : 				{
					"maxclass" : "bpatcher",
					"numoutlets" : 1,
					"outlettype" : [ "bang" ],
					"presentation_rect" : [ -1.015777, 38.243427, 63.0, 20.0 ],
					"args" : [ "Midi" ],
					"patching_rect" : [ 8.0, 42.0, 63.0, 20.0 ],
					"presentation" : 1,
					"bgmode" : 1,
					"id" : "obj-6",
					"name" : "gui.bng.box.maxpat",
					"numinlets" : 0
				}

			}
, 			{
				"box" : 				{
					"maxclass" : "bpatcher",
					"numoutlets" : 1,
					"outlettype" : [ "bang" ],
					"presentation_rect" : [ -1.015777, 19.243425, 63.0, 20.0 ],
					"args" : [ "Mapping" ],
					"patching_rect" : [ 8.0, 23.0, 63.0, 20.0 ],
					"presentation" : 1,
					"bgmode" : 1,
					"id" : "obj-3",
					"name" : "gui.bng.box.maxpat",
					"numinlets" : 0
				}

			}
, 			{
				"box" : 				{
					"maxclass" : "bpatcher",
					"numoutlets" : 1,
					"outlettype" : [ "bang" ],
					"presentation_rect" : [ -1.015777, 0.243426, 63.0, 20.0 ],
					"args" : [ "Analysis" ],
					"patching_rect" : [ 8.0, 4.0, 63.0, 20.0 ],
					"presentation" : 1,
					"bgmode" : 1,
					"id" : "obj-4",
					"name" : "gui.bng.box.maxpat",
					"numinlets" : 0
				}

			}
, 			{
				"box" : 				{
					"maxclass" : "newobj",
					"numoutlets" : 0,
					"fontsize" : 12.0,
					"patching_rect" : [ 178.0, 213.0, 100.0, 20.0 ],
					"id" : "obj-2",
					"fontname" : "Arial",
					"numinlets" : 0
				}

			}
, 			{
				"box" : 				{
					"maxclass" : "newobj",
					"text" : "loadbang",
					"numoutlets" : 1,
					"fontsize" : 12.0,
					"outlettype" : [ "bang" ],
					"patching_rect" : [ 98.0, 0.0, 60.0, 20.0 ],
					"id" : "obj-1",
					"fontname" : "Arial",
					"numinlets" : 1
				}

			}
, 			{
				"box" : 				{
					"maxclass" : "newobj",
					"text" : "p move-modules",
					"numoutlets" : 0,
					"fontsize" : 12.0,
					"patching_rect" : [ 8.418406, 133.815155, 99.0, 20.0 ],
					"id" : "obj-26",
					"fontname" : "Arial",
					"numinlets" : 1,
					"patcher" : 					{
						"fileversion" : 1,
						"rect" : [ 124.0, 308.0, 774.0, 487.0 ],
						"bglocked" : 0,
						"defrect" : [ 124.0, 308.0, 774.0, 487.0 ],
						"openrect" : [ 0.0, 0.0, 0.0, 0.0 ],
						"openinpresentation" : 0,
						"default_fontsize" : 12.0,
						"default_fontface" : 0,
						"default_fontname" : "Arial",
						"gridonopen" : 0,
						"gridsize" : [ 15.0, 15.0 ],
						"gridsnaponopen" : 0,
						"toolbarvisible" : 1,
						"boxanimatetime" : 200,
						"imprint" : 0,
						"enablehscroll" : 1,
						"enablevscroll" : 1,
						"devicewidth" : 0.0,
						"boxes" : [ 							{
								"box" : 								{
									"maxclass" : "newobj",
									"text" : "s pos-routing-mixautomation",
									"numoutlets" : 0,
									"fontsize" : 12.0,
									"patching_rect" : [ 600.0, 172.0, 162.0, 20.0 ],
									"id" : "obj-22",
									"fontname" : "Arial",
									"numinlets" : 1
								}

							}
, 							{
								"box" : 								{
									"maxclass" : "message",
									"text" : "548 389",
									"numoutlets" : 1,
									"fontsize" : 12.0,
									"outlettype" : [ "" ],
									"patching_rect" : [ 654.0, 145.0, 54.0, 18.0 ],
									"id" : "obj-23",
									"fontname" : "Arial",
									"numinlets" : 2
								}

							}
, 							{
								"box" : 								{
									"maxclass" : "message",
									"text" : "537 755",
									"numoutlets" : 1,
									"fontsize" : 12.0,
									"outlettype" : [ "" ],
									"patching_rect" : [ 600.0, 145.0, 54.0, 18.0 ],
									"id" : "obj-24",
									"fontname" : "Arial",
									"numinlets" : 2
								}

							}
, 							{
								"box" : 								{
									"maxclass" : "newobj",
									"text" : "sel 0 1",
									"numoutlets" : 3,
									"fontsize" : 12.0,
									"outlettype" : [ "bang", "bang", "" ],
									"patching_rect" : [ 600.0, 114.0, 126.0, 20.0 ],
									"id" : "obj-25",
									"fontname" : "Arial",
									"numinlets" : 1
								}

							}
, 							{
								"box" : 								{
									"maxclass" : "toggle",
									"numoutlets" : 1,
									"outlettype" : [ "int" ],
									"patching_rect" : [ 600.0, 84.0, 20.0, 20.0 ],
									"id" : "obj-26",
									"numinlets" : 1
								}

							}
, 							{
								"box" : 								{
									"maxclass" : "newobj",
									"text" : "s pos-routing-midi",
									"numoutlets" : 0,
									"fontsize" : 12.0,
									"patching_rect" : [ 420.0, 173.0, 106.0, 20.0 ],
									"id" : "obj-17",
									"fontname" : "Arial",
									"numinlets" : 1
								}

							}
, 							{
								"box" : 								{
									"maxclass" : "message",
									"text" : "548 389",
									"numoutlets" : 1,
									"fontsize" : 12.0,
									"outlettype" : [ "" ],
									"patching_rect" : [ 474.0, 146.0, 54.0, 18.0 ],
									"id" : "obj-18",
									"fontname" : "Arial",
									"numinlets" : 2
								}

							}
, 							{
								"box" : 								{
									"maxclass" : "message",
									"text" : "537 755",
									"numoutlets" : 1,
									"fontsize" : 12.0,
									"outlettype" : [ "" ],
									"patching_rect" : [ 420.0, 146.0, 54.0, 18.0 ],
									"id" : "obj-19",
									"fontname" : "Arial",
									"numinlets" : 2
								}

							}
, 							{
								"box" : 								{
									"maxclass" : "newobj",
									"text" : "sel 0 1",
									"numoutlets" : 3,
									"fontsize" : 12.0,
									"outlettype" : [ "bang", "bang", "" ],
									"patching_rect" : [ 420.0, 115.0, 126.0, 20.0 ],
									"id" : "obj-20",
									"fontname" : "Arial",
									"numinlets" : 1
								}

							}
, 							{
								"box" : 								{
									"maxclass" : "toggle",
									"numoutlets" : 1,
									"outlettype" : [ "int" ],
									"patching_rect" : [ 420.0, 85.0, 20.0, 20.0 ],
									"id" : "obj-21",
									"numinlets" : 1
								}

							}
, 							{
								"box" : 								{
									"maxclass" : "newobj",
									"text" : "s pos-routing-params",
									"numoutlets" : 0,
									"fontsize" : 12.0,
									"patching_rect" : [ 240.0, 174.0, 124.0, 20.0 ],
									"id" : "obj-12",
									"fontname" : "Arial",
									"numinlets" : 1
								}

							}
, 							{
								"box" : 								{
									"maxclass" : "message",
									"text" : "548 389",
									"numoutlets" : 1,
									"fontsize" : 12.0,
									"outlettype" : [ "" ],
									"patching_rect" : [ 294.0, 146.0, 54.0, 18.0 ],
									"id" : "obj-13",
									"fontname" : "Arial",
									"numinlets" : 2
								}

							}
, 							{
								"box" : 								{
									"maxclass" : "message",
									"text" : "537 755",
									"numoutlets" : 1,
									"fontsize" : 12.0,
									"outlettype" : [ "" ],
									"patching_rect" : [ 240.0, 146.0, 54.0, 18.0 ],
									"id" : "obj-14",
									"fontname" : "Arial",
									"numinlets" : 2
								}

							}
, 							{
								"box" : 								{
									"maxclass" : "newobj",
									"text" : "sel 0 1",
									"numoutlets" : 3,
									"fontsize" : 12.0,
									"outlettype" : [ "bang", "bang", "" ],
									"patching_rect" : [ 240.0, 115.0, 126.0, 20.0 ],
									"id" : "obj-15",
									"fontname" : "Arial",
									"numinlets" : 1
								}

							}
, 							{
								"box" : 								{
									"maxclass" : "toggle",
									"numoutlets" : 1,
									"outlettype" : [ "int" ],
									"patching_rect" : [ 240.0, 85.0, 20.0, 20.0 ],
									"id" : "obj-16",
									"numinlets" : 1
								}

							}
, 							{
								"box" : 								{
									"maxclass" : "newobj",
									"text" : "s pos-analysis",
									"numoutlets" : 0,
									"fontsize" : 12.0,
									"patching_rect" : [ 60.0, 170.0, 87.0, 20.0 ],
									"id" : "obj-11",
									"fontname" : "Arial",
									"numinlets" : 1
								}

							}
, 							{
								"box" : 								{
									"maxclass" : "message",
									"text" : "548 389",
									"numoutlets" : 1,
									"fontsize" : 12.0,
									"outlettype" : [ "" ],
									"patching_rect" : [ 114.0, 143.0, 54.0, 18.0 ],
									"id" : "obj-10",
									"fontname" : "Arial",
									"numinlets" : 2
								}

							}
, 							{
								"box" : 								{
									"maxclass" : "message",
									"text" : "537 755",
									"numoutlets" : 1,
									"fontsize" : 12.0,
									"outlettype" : [ "" ],
									"patching_rect" : [ 60.0, 143.0, 54.0, 18.0 ],
									"id" : "obj-7",
									"fontname" : "Arial",
									"numinlets" : 2
								}

							}
, 							{
								"box" : 								{
									"maxclass" : "newobj",
									"text" : "sel 0 1",
									"numoutlets" : 3,
									"fontsize" : 12.0,
									"outlettype" : [ "bang", "bang", "" ],
									"patching_rect" : [ 60.0, 112.0, 126.0, 20.0 ],
									"id" : "obj-5",
									"fontname" : "Arial",
									"numinlets" : 1
								}

							}
, 							{
								"box" : 								{
									"maxclass" : "toggle",
									"numoutlets" : 1,
									"outlettype" : [ "int" ],
									"patching_rect" : [ 60.0, 82.0, 20.0, 20.0 ],
									"id" : "obj-4",
									"numinlets" : 1
								}

							}
, 							{
								"box" : 								{
									"maxclass" : "newobj",
									"text" : "unpack 0 0 0 0",
									"numoutlets" : 4,
									"fontsize" : 12.0,
									"outlettype" : [ "int", "int", "int", "int" ],
									"patching_rect" : [ 60.0, 54.0, 559.0, 20.0 ],
									"id" : "obj-2",
									"fontname" : "Arial",
									"numinlets" : 1
								}

							}
, 							{
								"box" : 								{
									"maxclass" : "inlet",
									"numoutlets" : 1,
									"outlettype" : [ "" ],
									"patching_rect" : [ 60.0, 23.0, 25.0, 25.0 ],
									"id" : "obj-1",
									"numinlets" : 0,
									"comment" : ""
								}

							}
 ],
						"lines" : [ 							{
								"patchline" : 								{
									"source" : [ "obj-24", 0 ],
									"destination" : [ "obj-22", 0 ],
									"hidden" : 0,
									"midpoints" : [  ]
								}

							}
, 							{
								"patchline" : 								{
									"source" : [ "obj-23", 0 ],
									"destination" : [ "obj-22", 0 ],
									"hidden" : 0,
									"midpoints" : [ 663.5, 167.0, 609.5, 167.0 ]
								}

							}
, 							{
								"patchline" : 								{
									"source" : [ "obj-2", 3 ],
									"destination" : [ "obj-26", 0 ],
									"hidden" : 0,
									"midpoints" : [  ]
								}

							}
, 							{
								"patchline" : 								{
									"source" : [ "obj-26", 0 ],
									"destination" : [ "obj-25", 0 ],
									"hidden" : 0,
									"midpoints" : [  ]
								}

							}
, 							{
								"patchline" : 								{
									"source" : [ "obj-25", 0 ],
									"destination" : [ "obj-24", 0 ],
									"hidden" : 0,
									"midpoints" : [  ]
								}

							}
, 							{
								"patchline" : 								{
									"source" : [ "obj-25", 1 ],
									"destination" : [ "obj-23", 0 ],
									"hidden" : 0,
									"midpoints" : [  ]
								}

							}
, 							{
								"patchline" : 								{
									"source" : [ "obj-19", 0 ],
									"destination" : [ "obj-17", 0 ],
									"hidden" : 0,
									"midpoints" : [  ]
								}

							}
, 							{
								"patchline" : 								{
									"source" : [ "obj-18", 0 ],
									"destination" : [ "obj-17", 0 ],
									"hidden" : 0,
									"midpoints" : [ 483.5, 168.0, 429.5, 168.0 ]
								}

							}
, 							{
								"patchline" : 								{
									"source" : [ "obj-13", 0 ],
									"destination" : [ "obj-12", 0 ],
									"hidden" : 0,
									"midpoints" : [ 303.5, 168.0, 249.5, 168.0 ]
								}

							}
, 							{
								"patchline" : 								{
									"source" : [ "obj-14", 0 ],
									"destination" : [ "obj-12", 0 ],
									"hidden" : 0,
									"midpoints" : [  ]
								}

							}
, 							{
								"patchline" : 								{
									"source" : [ "obj-2", 2 ],
									"destination" : [ "obj-21", 0 ],
									"hidden" : 0,
									"midpoints" : [  ]
								}

							}
, 							{
								"patchline" : 								{
									"source" : [ "obj-20", 1 ],
									"destination" : [ "obj-18", 0 ],
									"hidden" : 0,
									"midpoints" : [  ]
								}

							}
, 							{
								"patchline" : 								{
									"source" : [ "obj-20", 0 ],
									"destination" : [ "obj-19", 0 ],
									"hidden" : 0,
									"midpoints" : [  ]
								}

							}
, 							{
								"patchline" : 								{
									"source" : [ "obj-21", 0 ],
									"destination" : [ "obj-20", 0 ],
									"hidden" : 0,
									"midpoints" : [  ]
								}

							}
, 							{
								"patchline" : 								{
									"source" : [ "obj-2", 1 ],
									"destination" : [ "obj-16", 0 ],
									"hidden" : 0,
									"midpoints" : [  ]
								}

							}
, 							{
								"patchline" : 								{
									"source" : [ "obj-16", 0 ],
									"destination" : [ "obj-15", 0 ],
									"hidden" : 0,
									"midpoints" : [  ]
								}

							}
, 							{
								"patchline" : 								{
									"source" : [ "obj-15", 0 ],
									"destination" : [ "obj-14", 0 ],
									"hidden" : 0,
									"midpoints" : [  ]
								}

							}
, 							{
								"patchline" : 								{
									"source" : [ "obj-15", 1 ],
									"destination" : [ "obj-13", 0 ],
									"hidden" : 0,
									"midpoints" : [  ]
								}

							}
, 							{
								"patchline" : 								{
									"source" : [ "obj-10", 0 ],
									"destination" : [ "obj-11", 0 ],
									"hidden" : 0,
									"midpoints" : [ 123.5, 165.0, 69.5, 165.0 ]
								}

							}
, 							{
								"patchline" : 								{
									"source" : [ "obj-7", 0 ],
									"destination" : [ "obj-11", 0 ],
									"hidden" : 0,
									"midpoints" : [  ]
								}

							}
, 							{
								"patchline" : 								{
									"source" : [ "obj-5", 1 ],
									"destination" : [ "obj-10", 0 ],
									"hidden" : 0,
									"midpoints" : [  ]
								}

							}
, 							{
								"patchline" : 								{
									"source" : [ "obj-5", 0 ],
									"destination" : [ "obj-7", 0 ],
									"hidden" : 0,
									"midpoints" : [  ]
								}

							}
, 							{
								"patchline" : 								{
									"source" : [ "obj-2", 0 ],
									"destination" : [ "obj-4", 0 ],
									"hidden" : 0,
									"midpoints" : [  ]
								}

							}
, 							{
								"patchline" : 								{
									"source" : [ "obj-4", 0 ],
									"destination" : [ "obj-5", 0 ],
									"hidden" : 0,
									"midpoints" : [  ]
								}

							}
, 							{
								"patchline" : 								{
									"source" : [ "obj-1", 0 ],
									"destination" : [ "obj-2", 0 ],
									"hidden" : 0,
									"midpoints" : [  ]
								}

							}
 ]
					}
,
					"saved_object_attributes" : 					{
						"globalpatchername" : "",
						"fontface" : 0,
						"fontsize" : 12.0,
						"default_fontface" : 0,
						"default_fontname" : "Arial",
						"fontname" : "Arial",
						"default_fontsize" : 12.0
					}

				}

			}
, 			{
				"box" : 				{
					"maxclass" : "message",
					"text" : "1 0 0 0",
					"numoutlets" : 1,
					"fontsize" : 12.0,
					"outlettype" : [ "" ],
					"patching_rect" : [ 8.418406, 96.73407, 47.0, 18.0 ],
					"id" : "obj-16",
					"fontname" : "Arial",
					"numinlets" : 2
				}

			}
, 			{
				"box" : 				{
					"maxclass" : "message",
					"text" : "0 0 0 1",
					"numoutlets" : 1,
					"fontsize" : 12.0,
					"outlettype" : [ "" ],
					"patching_rect" : [ 155.492508, 96.73407, 47.0, 18.0 ],
					"id" : "obj-14",
					"fontname" : "Arial",
					"numinlets" : 2
				}

			}
, 			{
				"box" : 				{
					"maxclass" : "message",
					"text" : "0 0 1 0",
					"numoutlets" : 1,
					"fontsize" : 12.0,
					"outlettype" : [ "" ],
					"patching_rect" : [ 105.222717, 96.73407, 47.0, 18.0 ],
					"id" : "obj-12",
					"fontname" : "Arial",
					"numinlets" : 2
				}

			}
, 			{
				"box" : 				{
					"maxclass" : "message",
					"text" : "0 1 0 0",
					"numoutlets" : 1,
					"fontsize" : 12.0,
					"outlettype" : [ "" ],
					"patching_rect" : [ 57.138573, 96.73407, 47.0, 18.0 ],
					"id" : "obj-10",
					"fontname" : "Arial",
					"numinlets" : 2
				}

			}
 ],
		"lines" : [ 			{
				"patchline" : 				{
					"source" : [ "obj-4", 0 ],
					"destination" : [ "obj-16", 0 ],
					"hidden" : 0,
					"midpoints" : [  ]
				}

			}
, 			{
				"patchline" : 				{
					"source" : [ "obj-3", 0 ],
					"destination" : [ "obj-10", 0 ],
					"hidden" : 0,
					"midpoints" : [ 17.5, 87.774246, 66.638573, 87.774246 ]
				}

			}
, 			{
				"patchline" : 				{
					"source" : [ "obj-6", 0 ],
					"destination" : [ "obj-12", 0 ],
					"hidden" : 0,
					"midpoints" : [ 17.5, 87.491379, 114.722717, 87.491379 ]
				}

			}
, 			{
				"patchline" : 				{
					"source" : [ "obj-5", 0 ],
					"destination" : [ "obj-14", 0 ],
					"hidden" : 0,
					"midpoints" : [ 17.5, 87.991379, 164.992508, 87.991379 ]
				}

			}
, 			{
				"patchline" : 				{
					"source" : [ "obj-14", 0 ],
					"destination" : [ "obj-26", 0 ],
					"hidden" : 0,
					"midpoints" : [ 164.992508, 123.774612, 17.918407, 123.774612 ]
				}

			}
, 			{
				"patchline" : 				{
					"source" : [ "obj-12", 0 ],
					"destination" : [ "obj-26", 0 ],
					"hidden" : 0,
					"midpoints" : [ 114.722717, 123.774612, 17.918407, 123.774612 ]
				}

			}
, 			{
				"patchline" : 				{
					"source" : [ "obj-10", 0 ],
					"destination" : [ "obj-26", 0 ],
					"hidden" : 0,
					"midpoints" : [ 66.638573, 123.774612, 17.918407, 123.774612 ]
				}

			}
, 			{
				"patchline" : 				{
					"source" : [ "obj-16", 0 ],
					"destination" : [ "obj-26", 0 ],
					"hidden" : 0,
					"midpoints" : [ 17.918407, 123.774612, 17.918407, 123.774612 ]
				}

			}
, 			{
				"patchline" : 				{
					"source" : [ "obj-1", 0 ],
					"destination" : [ "obj-16", 0 ],
					"hidden" : 0,
					"midpoints" : [ 107.5, 87.0, 17.918407, 87.0 ]
				}

			}
 ]
	}

}
